<svg width="25" height="25" viewBox="0 0 25 25" fill="none" xmlns="http://www.w3.org/2000/svg">
<g clip-path="url(#clip0_0_2233)">
<path d="M19.2 2.5H5.19998C2.43998 2.5 0.199982 4.74 0.199982 7.5V17.5C0.199982 20.26 2.43998 22.5 5.19998 22.5H12.2C12.75 22.5 13.2 22.05 13.2 21.5C13.2 20.95 12.75 20.5 12.2 20.5H5.19998C3.54998 20.5 2.19998 19.15 2.19998 17.5V9.5H22.2V14.5C22.2 15.05 22.65 15.5 23.2 15.5C23.75 15.5 24.2 15.05 24.2 14.5V7.5C24.2 4.74 21.96 2.5 19.2 2.5ZM2.19998 7.5C2.19998 5.85 3.54998 4.5 5.19998 4.5H19.2C20.85 4.5 22.2 5.85 22.2 7.5H2.19998ZM16.61 12.67C15.85 11.91 14.85 11.5 13.78 11.5H12.19C11.64 11.5 11.19 11.95 11.19 12.5V14.09C11.19 15.16 11.61 16.16 12.36 16.92L19.07 23.63C19.64 24.2 20.39 24.51 21.19 24.51C21.99 24.51 22.74 24.2 23.31 23.63C23.88 23.06 24.19 22.31 24.19 21.51C24.19 20.71 23.88 19.96 23.31 19.39L16.6 12.68L16.61 12.67ZM21.9 22.21C21.52 22.59 20.86 22.59 20.49 22.21L13.78 15.5C13.4 15.12 13.19 14.62 13.19 14.09V13.5H13.78C14.31 13.5 14.82 13.71 15.19 14.09L21.9 20.8C22.09 20.99 22.19 21.24 22.19 21.51C22.19 21.78 22.09 22.03 21.9 22.22V22.21Z" fill="#676D75"/>
</g>
<defs>
<clipPath id="clip0_0_2233">
<rect width="24" height="24" fill="white" transform="translate(0.199982 0.5)"/>
</clipPath>
</defs>
</svg>
